<svg id="Layer_1" data-name="Layer 1" xmlns="http://www.w3.org/2000/svg" xmlns:xlink="http://www.w3.org/1999/xlink" viewBox="0 0 1920 1080"><defs><style>.cls-1{fill:none;}.cls-2{fill:#369345;}.cls-3{fill:url(#New_Pattern_5);}</style><pattern id="New_Pattern_5" data-name="New Pattern 5" width="251.24" height="318.55" patternUnits="userSpaceOnUse" viewBox="0 0 251.24 318.55"><rect class="cls-1" width="251.24" height="318.55"/><path class="cls-2" d="M68.76,199.76a6.29,6.29,0,0,0,1.37-5.16,35.56,35.56,0,0,0-70,0,6.29,6.29,0,0,0,1.37,5.16A6.2,6.2,0,0,0,6.23,202H64A6.2,6.2,0,0,0,68.76,199.76Zm-1-4.75a3.9,3.9,0,0,1-.86,3.22A3.8,3.8,0,0,1,64,199.61H6.23a3.8,3.8,0,0,1-2.94-1.38A3.93,3.93,0,0,1,2.43,195a33.19,33.19,0,0,1,65.37,0Z"/><path class="cls-2" d="M68.82,227.27l.51-2.06a4,4,0,0,0-3.9-5H4.8a4,4,0,0,0-3.9,5l.51,2.06a7.92,7.92,0,0,0,7.69,6h52A7.9,7.9,0,0,0,68.82,227.27Zm-3.39-4.68a1.65,1.65,0,0,1,1.3.63,1.68,1.68,0,0,1,.3,1.42l-.51,2.06a5.53,5.53,0,0,1-5.39,4.22H9.1a5.53,5.53,0,0,1-5.39-4.22l-.51-2.06a1.68,1.68,0,0,1,.3-1.42,1.65,1.65,0,0,1,1.3-.63Z"/><path class="cls-2" d="M23.06,180.28c0,.91-1.1,1.65-2.46,1.65s-2.45-.74-2.45-1.65,1.1-1.65,2.45-1.65S23.06,179.37,23.06,180.28Z"/><path class="cls-2" d="M30.93,174.79c0,.91-1.1,1.65-2.46,1.65S26,175.7,26,174.79s1.1-1.64,2.46-1.64S30.93,173.88,30.93,174.79Z"/><ellipse class="cls-2" cx="28.47" cy="184.23" rx="2.46" ry="1.65"/><path class="cls-2" d="M45.3,174.79c0,.91-1.1,1.65-2.46,1.65s-2.45-.74-2.45-1.65,1.1-1.64,2.45-1.64S45.3,173.88,45.3,174.79Z"/><ellipse class="cls-2" cx="42.84" cy="184.23" rx="2.46" ry="1.65"/><path class="cls-2" d="M37,179.23c0,.91-1.1,1.64-2.46,1.64s-2.46-.73-2.46-1.64,1.1-1.65,2.46-1.65S37,178.32,37,179.23Z"/><path class="cls-2" d="M52.22,179.23c0,.91-1.1,1.64-2.46,1.64s-2.46-.73-2.46-1.64,1.1-1.65,2.46-1.65S52.22,178.32,52.22,179.23Z"/><path class="cls-2" d="M71.16,210.53a5.62,5.62,0,0,0-5.61-5.61H5.61a5.61,5.61,0,0,0,0,11.22H65.55A5.62,5.62,0,0,0,71.16,210.53Zm-5.61-3.24a3.24,3.24,0,0,1,0,6.48H5.61a3.24,3.24,0,1,1,0-6.48Z"/><path class="cls-2" d="M194.38,40.48a6.29,6.29,0,0,0,1.37-5.16,35.56,35.56,0,0,0-70,0,6.29,6.29,0,0,0,1.37,5.16,6.21,6.21,0,0,0,4.76,2.22h57.77A6.21,6.21,0,0,0,194.38,40.48Zm-1-4.75a3.92,3.92,0,0,1-.86,3.23,3.83,3.83,0,0,1-2.94,1.37H131.85A3.83,3.83,0,0,1,128.91,39a4,4,0,0,1-.86-3.23,33.19,33.19,0,0,1,65.37,0Z"/><path class="cls-2" d="M194.44,68l.51-2.07a4,4,0,0,0-3.9-5H130.42a4,4,0,0,0-3.9,5L127,68a7.92,7.92,0,0,0,7.69,6h52A7.92,7.92,0,0,0,194.44,68Zm-3.39-4.68a1.64,1.64,0,0,1,1.6,2l-.51,2.07a5.54,5.54,0,0,1-5.39,4.22h-52a5.54,5.54,0,0,1-5.39-4.22l-.51-2.07a1.64,1.64,0,0,1,1.6-2Z"/><path class="cls-2" d="M148.68,21c0,.91-1.1,1.64-2.46,1.64s-2.45-.73-2.45-1.64,1.1-1.65,2.45-1.65S148.68,20.1,148.68,21Z"/><path class="cls-2" d="M156.55,15.52c0,.91-1.1,1.65-2.46,1.65s-2.46-.74-2.46-1.65,1.1-1.65,2.46-1.65S156.55,14.61,156.55,15.52Z"/><ellipse class="cls-2" cx="154.09" cy="24.95" rx="2.46" ry="1.65"/><path class="cls-2" d="M170.92,15.52c0,.91-1.1,1.65-2.46,1.65S166,16.43,166,15.52s1.11-1.65,2.46-1.65S170.92,14.61,170.92,15.52Z"/><ellipse class="cls-2" cx="168.46" cy="24.95" rx="2.46" ry="1.65"/><path class="cls-2" d="M162.6,20c0,.91-1.1,1.65-2.46,1.65s-2.46-.74-2.46-1.65,1.1-1.65,2.46-1.65S162.6,19,162.6,20Z"/><path class="cls-2" d="M177.84,20c0,.91-1.1,1.65-2.46,1.65s-2.46-.74-2.46-1.65,1.1-1.65,2.46-1.65S177.84,19,177.84,20Z"/><path class="cls-2" d="M196.78,51.26a5.61,5.61,0,0,0-5.61-5.61H131.23a5.61,5.61,0,1,0,0,11.22h59.94A5.62,5.62,0,0,0,196.78,51.26ZM191.17,48a3.25,3.25,0,0,1,0,6.49H131.23a3.25,3.25,0,0,1,0-6.49Z"/></pattern></defs><rect class="cls-3" y="1.45" width="1920" height="1080"/></svg>