<svg id="Layer_1" data-name="Layer 1" xmlns="http://www.w3.org/2000/svg" xmlns:xlink="http://www.w3.org/1999/xlink" viewBox="0 0 1920 1080"><defs><style>.cls-1,.cls-2{fill:none;}.cls-2,.cls-3,.cls-4{stroke:#12698f;stroke-miterlimit:10;}.cls-3{fill:#12698f;}.cls-4{stroke-width:1.5px;fill:url(#New_Pattern_3);}</style><pattern id="New_Pattern_3" data-name="New Pattern 3" width="240.64" height="283.82" patternUnits="userSpaceOnUse" viewBox="0 0 240.64 283.81"><rect class="cls-1" width="240.64" height="283.82"/><path class="cls-2" d="M135.65,286.28s-.22-2.92,3.21-4.93,2.73-3,5.42-5.6,3.06-8.82,5.85-9,5.92,1.17,5.35,8.05,5.87,9.82,9.38,10,11.22-1.06,12.14.76,8.55,20.59,11.18,23.75,2.47,3.39,4.74,4.86,7,4.19,5.94,8.87-4,4.29-5,3.89S177,318.5,165.8,308.66,135.65,286.28,135.65,286.28Z"/><path class="cls-2" d="M165.1,284.79a7.22,7.22,0,0,1,.94-3c1-1.46,6.15-4,8-4.48,1.47-.33,2.16,4.71,2.6,7.8"/><path class="cls-2" d="M138.6,281.51s9.87,5.3,10.82,9.58.12,4.85.12,4.85l-13.89-9.66S135.41,283.69,138.6,281.51Z"/><path class="cls-2" d="M144.28,275.75s2.4-1.85,5.34,3.87,8.2,1.92,8.2,1.92"/><path class="cls-2" d="M147,270.85s1.32-3.14,3.75-2.19a5.29,5.29,0,0,1,3.81,4.65,10.35,10.35,0,0,0,1,3.55"/><path class="cls-2" d="M171.11,278.51s3.55.76,4,2.89c.21,1,.45,2.28.64,3.39"/><path class="cls-2" d="M141.89,278.71s15.73,11.17,12.85,17.76l-1.12,2.46"/><path class="cls-2" d="M152.49,282.59s5.4,9.57,8.53,11.45,14.8,8.85,19.46,16,5.36,1.73,5.36,1.73"/><path class="cls-2" d="M140.19,282.52"/><path class="cls-2" d="M140.82,282.92"/><path class="cls-2" d="M141.45,283.33"/><path class="cls-2" d="M142.08,283.74"/><path class="cls-2" d="M15.33,144.38s-.21-2.93,3.21-4.94,2.73-3,5.42-5.6,3.06-8.82,5.85-9,5.92,1.17,5.35,8,5.87,9.82,9.38,10,11.22-1.06,12.14.77,8.56,20.58,11.18,23.74,2.48,3.39,4.75,4.86,7,4.2,5.93,8.87-4,4.29-5,3.89-16.88-8.41-28.08-18.25S15.33,144.38,15.33,144.38Z"/><path class="cls-2" d="M15.34,144.44l-4.21,3s-1.05,1.76,6.27,7.29l.9-.2,3.46,2.73,0,1.08,2.93,1.9,1-.45,2.49,1.71-.05,1,3,2,.92-.46,2.47,1.87L34.48,167l2.42,1.57,1.46-.11,2,1.27,0,.89s7.08,4.61,7.61,5.06l1-.31L51.45,177l.1.93,3,1.61,1.83-.11L58.66,181l.08,1.07,1.2.75,1.24-.3,3.2,1.74-.25.73,2,.79.47-.54,3.05,1.09.06.66,2.75.31.24-.86s3.58.36,4.82-1.22a10.62,10.62,0,0,0,1.5-2.32l-1-.4"/><path class="cls-2" d="M44.78,142.88a7.22,7.22,0,0,1,.94-2.95c1-1.46,6.15-4.05,8-4.48,1.46-.33,2.15,4.71,2.59,7.8"/><path class="cls-2" d="M12.94,146.16a111.71,111.71,0,0,0,12.34,9.1c6.42,4,22.86,13.77,22.86,13.77s-13.77-11.66-18-14.21L15.33,144.38Z"/><path class="cls-2" d="M18.28,139.6s9.87,5.3,10.82,9.59.12,4.84.12,4.84l-13.89-9.65S15.09,141.79,18.28,139.6Z"/><path class="cls-2" d="M24,133.84s2.4-1.85,5.34,3.87,8.21,1.92,8.21,1.92"/><path class="cls-2" d="M26.64,128.94s1.33-3.13,3.75-2.19a5.3,5.3,0,0,1,3.81,4.66,10.34,10.34,0,0,0,1,3.54"/><path class="cls-2" d="M50.79,136.6s3.55.76,4,2.89c.21,1,.45,2.28.65,3.39"/><path class="cls-2" d="M71.13,171.19c-6,4.73-13.56-15-15.51-20.11a21.34,21.34,0,0,1-1.7-8.42"/><path class="cls-2" d="M77.05,175.75s2,2.89-1.45,3.35-16.93-8.31-20.51-12.75S39.18,151.26,34.57,158"/><path class="cls-2" d="M21.57,136.8S37.3,148,34.43,154.57L33.3,157"/><path class="cls-2" d="M32.17,140.68s5.4,9.57,8.53,11.45S55.5,161,60.16,168.18s5.36,1.73,5.36,1.73"/><path class="cls-2" d="M49.79,142.7s1.48,5.31-1.67,6.19-8,2.85-8,2.85"/><path class="cls-2" d="M43,153.51s8.4-3.78,12.05-4.1"/><path class="cls-2" d="M53.4,160.94s5.82-.86,4.21-4.84"/><path class="cls-3" d="M56.39,148l1.93-1.05-.28-.53s1.18-.58,1.26.55-2.42,2-2.42,2-.58.24-.67-.2S55.86,148.25,56.39,148Z"/><path class="cls-3" d="M57.74,150.93l1.93-1.05-.27-.53s1.17-.58,1.25.56-2.41,2-2.41,2-.58.23-.67-.21S57.22,151.22,57.74,150.93Z"/><path class="cls-3" d="M59.25,154.6l1.93-1L60.9,153s1.17-.58,1.25.55-2.41,2-2.41,2-.58.23-.67-.2S58.72,154.88,59.25,154.6Z"/><path class="cls-3" d="M60.68,157.91l1.92-1-.27-.53s1.17-.57,1.25.56-2.41,2-2.41,2-.58.23-.67-.21S60.15,158.2,60.68,157.91Z"/><path class="cls-3" d="M62.67,162.2l1.93-1-.28-.53s1.17-.58,1.26.55-2.42,2-2.42,2-.58.24-.67-.2S62.14,162.48,62.67,162.2Z"/><path class="cls-3" d="M64.87,166.62l1.93-1.05-.27-.53s1.17-.58,1.25.55-2.41,2-2.41,2-.58.23-.67-.2S64.35,166.9,64.87,166.62Z"/><path class="cls-3" d="M67.89,169.57l1.26-1-.26-.35s.78-.55,1,.26-1.5,1.69-1.5,1.69-.39.24-.51-.07S67.55,169.83,67.89,169.57Z"/><path class="cls-2" d="M18,146.09"/><path class="cls-2" d="M19.88,140.61"/><path class="cls-2" d="M18.61,146.5"/><path class="cls-2" d="M20.51,141"/><path class="cls-2" d="M19.24,146.91"/><path class="cls-2" d="M21.14,141.43"/><path class="cls-2" d="M19.87,147.32"/><path class="cls-2" d="M21.77,141.84"/><path class="cls-2" d="M20.5,147.73"/><path class="cls-2" d="M22.4,142.25"/><path class="cls-2" d="M21.13,148.14"/><path class="cls-2" d="M23,142.65"/><path class="cls-2" d="M21.76,148.55"/><path class="cls-2" d="M23.66,143.06"/><path class="cls-2" d="M22.39,149"/><path class="cls-2" d="M24.29,143.47"/><path class="cls-2" d="M23,149.37"/><path class="cls-2" d="M24.92,143.88"/><path class="cls-2" d="M23.65,149.78"/><path class="cls-2" d="M25.55,144.29"/><path class="cls-2" d="M24.28,150.19"/><path class="cls-2" d="M26.18,144.7"/><path class="cls-2" d="M24.9,150.6"/><path class="cls-2" d="M26.71,145.26"/><path class="cls-2" d="M25.53,151"/><path class="cls-2" d="M27.28,146"/><path class="cls-2" d="M26.17,151.42"/><path class="cls-2" d="M27.82,146.51"/><path class="cls-2" d="M26.73,152"/><path class="cls-2" d="M28.35,147.32"/><path class="cls-2" d="M27.36,152.43"/><path class="cls-2" d="M28.89,147.88"/><path class="cls-2" d="M28,153"/><path class="cls-2" d="M29.26,149.17"/><path class="cls-2" d="M28.6,153.36"/><path class="cls-2" d="M29.41,150.31"/><path class="cls-2" d="M55,162.37"/><path class="cls-2" d="M55.63,160.38"/><path class="cls-2" d="M55.58,162.89"/><path class="cls-2" d="M56.62,159.68"/><path class="cls-2" d="M56.15,163.12"/><path class="cls-2" d="M57.69,158.74"/><path class="cls-2" d="M56.63,163.9"/><path class="cls-2" d="M58.53,158.79"/><path class="cls-2" d="M57.34,164.37"/><path class="cls-2" d="M59,159.57"/><path class="cls-2" d="M57.76,165.1"/><path class="cls-2" d="M59.51,160.33"/><path class="cls-2" d="M58.34,165.76"/><path class="cls-2" d="M59.91,161.4"/><path class="cls-2" d="M58.85,166.47"/><path class="cls-2" d="M60.42,162.55"/><path class="cls-2" d="M59.38,167"/><path class="cls-2" d="M61,163.54"/><path class="cls-2" d="M59.86,167.73"/><path class="cls-2" d="M61.4,164.39"/><path class="cls-2" d="M60.45,168.37"/><path class="cls-2" d="M61.93,165"/><path class="cls-2" d="M60.8,169.12"/><path class="cls-2" d="M62.61,165.51"/><path class="cls-2" d="M61.28,169.7"/><path class="cls-2" d="M63,166.34"/><path class="cls-2" d="M61.74,170.33"/><path class="cls-2" d="M63.32,167.17"/><path class="cls-2" d="M62.22,171"/><path class="cls-2" d="M64,167.58"/><path class="cls-2" d="M62.8,171.41"/><path class="cls-2" d="M64.31,168.41"/><path class="cls-2" d="M63.41,172"/><path class="cls-2" d="M64.66,169.23"/><path class="cls-2" d="M45.93,162.83a1.13,1.13,0,1,1-.33-1.56A1.13,1.13,0,0,1,45.93,162.83Z"/><path class="cls-2" d="M50.77,166.87a1.13,1.13,0,1,1-.33-1.56A1.13,1.13,0,0,1,50.77,166.87Z"/><path class="cls-2" d="M55.61,170.91a1.13,1.13,0,1,1-.33-1.56A1.13,1.13,0,0,1,55.61,170.91Z"/><path class="cls-2" d="M135.65,2.47s-.22-2.92,3.21-4.93,2.73-3,5.42-5.61,3.06-8.81,5.85-9,5.92,1.17,5.35,8S161.35.8,164.86,1,176.08-.1,177,1.73s8.55,20.59,11.18,23.74,2.47,3.39,4.74,4.87,7,4.19,5.94,8.86-4,4.3-5,3.89S177,34.69,165.8,24.84,135.65,2.47,135.65,2.47Z"/><path class="cls-2" d="M135.66,2.53l-4.22,3s-1,1.76,6.28,7.3l.9-.2,3.45,2.72v1.08l2.93,1.9,1-.44,2.49,1.7,0,1,3,2,.92-.46L154.88,24l-.08,1.08,2.41,1.57,1.47-.11,2,1.27,0,.9s7.09,4.6,7.62,5l1-.31,2.45,1.6.09.92,3,1.61,1.83-.1L179,39l.07,1.07,1.21.75,1.24-.29,3.2,1.73-.25.73,2,.79.47-.54L190,44.37l.06.66,2.75.31.24-.86s3.58.37,4.81-1.22A10.67,10.67,0,0,0,199.37,41l-1-.4"/><path class="cls-2" d="M165.1,1A7.13,7.13,0,0,1,166-2c1-1.46,6.15-4.06,8-4.48,1.47-.34,2.16,4.7,2.6,7.79"/><path class="cls-2" d="M133.26,4.25a111.71,111.71,0,0,0,12.34,9.1c6.42,4,22.86,13.77,22.86,13.77s-13.78-11.65-18-14.21L135.65,2.47Z"/><path class="cls-2" d="M138.6-2.3S148.47,3,149.42,7.28s.12,4.85.12,4.85L135.65,2.47S135.41-.12,138.6-2.3Z"/><path class="cls-2" d="M171.11-5.31s3.55.76,4,2.89c.21,1,.45,2.28.64,3.39"/><path class="cls-2" d="M191.45,29.28c-6,4.73-13.56-15-15.52-20.11A21.39,21.39,0,0,1,174.24.76"/><path class="cls-2" d="M197.37,33.84s2,2.9-1.45,3.35S179,28.89,175.41,24.44,159.5,9.35,154.89,16.08"/><path class="cls-2" d="M141.89-5.11s15.73,11.18,12.85,17.77l-1.12,2.45"/><path class="cls-2" d="M152.49-1.22s5.4,9.57,8.53,11.44,14.8,8.85,19.46,16S185.84,28,185.84,28"/><path class="cls-2" d="M170.11.79S171.59,6.1,168.44,7s-8,2.86-8,2.86"/><path class="cls-2" d="M163.3,11.61s8.4-3.79,12-4.11"/><path class="cls-2" d="M173.72,19s5.82-.87,4.21-4.85"/><path class="cls-3" d="M176.71,6.05l1.93-1-.28-.53s1.17-.57,1.25.56-2.41,2-2.41,2-.58.23-.67-.21S176.18,6.34,176.71,6.05Z"/><path class="cls-3" d="M178.06,9,180,8l-.28-.54s1.18-.57,1.26.56-2.41,2-2.41,2-.58.23-.68-.21S177.54,9.31,178.06,9Z"/><path class="cls-3" d="M179.56,12.69l1.93-1-.27-.53s1.17-.58,1.25.55-2.41,2-2.41,2-.58.24-.67-.2S179,13,179.56,12.69Z"/><path class="cls-3" d="M181,16,182.92,15l-.28-.53s1.18-.58,1.26.55-2.41,2-2.41,2-.58.23-.68-.21S180.47,16.29,181,16Z"/><path class="cls-3" d="M183,20.29l1.93-1.05-.28-.53s1.17-.58,1.25.55-2.41,2-2.41,2-.58.24-.67-.2S182.46,20.58,183,20.29Z"/><path class="cls-3" d="M185.19,24.71l1.93-1.05-.28-.53s1.18-.58,1.26.55-2.41,2-2.41,2-.58.24-.68-.2S184.67,25,185.19,24.71Z"/><path class="cls-3" d="M188.21,27.66l1.26-1-.26-.35s.78-.54,1,.26-1.5,1.69-1.5,1.69-.38.24-.5-.06S187.87,27.93,188.21,27.66Z"/><path class="cls-2" d="M138.29,4.19"/><path class="cls-2" d="M138.92,4.6"/><path class="cls-2" d="M139.55,5"/><path class="cls-2" d="M140.18,5.42"/><path class="cls-2" d="M140.81,5.82"/><path class="cls-2" d="M142.71.34"/><path class="cls-2" d="M141.44,6.23"/><path class="cls-2" d="M143.34.75"/><path class="cls-2" d="M142.07,6.64"/><path class="cls-2" d="M144,1.16"/><path class="cls-2" d="M142.7,7.05"/><path class="cls-2" d="M144.6,1.57"/><path class="cls-2" d="M143.33,7.46"/><path class="cls-2" d="M145.23,2"/><path class="cls-2" d="M144,7.87"/><path class="cls-2" d="M145.86,2.38"/><path class="cls-2" d="M144.59,8.28"/><path class="cls-2" d="M146.49,2.79"/><path class="cls-2" d="M145.22,8.69"/><path class="cls-2" d="M147,3.35"/><path class="cls-2" d="M145.85,9.1"/><path class="cls-2" d="M147.6,4.05"/><path class="cls-2" d="M146.48,9.51"/><path class="cls-2" d="M148.14,4.6"/><path class="cls-2" d="M147.05,10.12"/><path class="cls-2" d="M148.67,5.41"/><path class="cls-2" d="M147.68,10.53"/><path class="cls-2" d="M149.21,6"/><path class="cls-2" d="M148.29,11"/><path class="cls-2" d="M149.58,7.26"/><path class="cls-2" d="M148.92,11.45"/><path class="cls-2" d="M149.73,8.4"/><path class="cls-2" d="M175.29,20.46"/><path class="cls-2" d="M176,18.48"/><path class="cls-2" d="M175.9,21"/><path class="cls-2" d="M176.94,17.77"/><path class="cls-2" d="M176.47,21.21"/><path class="cls-2" d="M178,16.84"/><path class="cls-2" d="M177,22"/><path class="cls-2" d="M178.85,16.88"/><path class="cls-2" d="M177.66,22.46"/><path class="cls-2" d="M179.29,17.67"/><path class="cls-2" d="M178.08,23.19"/><path class="cls-2" d="M179.82,18.42"/><path class="cls-2" d="M178.66,23.85"/><path class="cls-2" d="M180.23,19.5"/><path class="cls-2" d="M179.17,24.57"/><path class="cls-2" d="M180.74,20.65"/><path class="cls-2" d="M179.7,25.11"/><path class="cls-2" d="M181.27,21.63"/><path class="cls-2" d="M180.18,25.82"/><path class="cls-2" d="M181.72,22.48"/><path class="cls-2" d="M180.77,26.46"/><path class="cls-2" d="M182.25,23"/><path class="cls-2" d="M181.11,27.21"/><path class="cls-2" d="M182.92,23.6"/><path class="cls-2" d="M181.6,27.79"/><path class="cls-2" d="M183.28,24.43"/><path class="cls-2" d="M182.05,28.42"/><path class="cls-2" d="M183.64,25.26"/><path class="cls-2" d="M182.54,29.12"/><path class="cls-2" d="M184.27,25.67"/><path class="cls-2" d="M183.12,29.5"/><path class="cls-2" d="M184.63,26.5"/><path class="cls-2" d="M183.73,30.08"/><path class="cls-2" d="M185,27.33"/><path class="cls-2" d="M166.25,20.92a1.13,1.13,0,1,1-.33-1.56A1.13,1.13,0,0,1,166.25,20.92Z"/><path class="cls-2" d="M171.09,25a1.13,1.13,0,1,1-.33-1.56A1.13,1.13,0,0,1,171.09,25Z"/><path class="cls-2" d="M175.93,29a1.13,1.13,0,0,1-1.56.33,1.12,1.12,0,0,1-.33-1.55A1.12,1.12,0,1,1,175.93,29Z"/></pattern></defs><rect class="cls-4" width="1920" height="1080"/></svg>