<svg id="Layer_1" data-name="Layer 1" xmlns="http://www.w3.org/2000/svg" xmlns:xlink="http://www.w3.org/1999/xlink" viewBox="0 0 1920 1080"><defs><style>.cls-1{fill:none;}.cls-2{fill:#1e1e1e;}.cls-3{fill:url(#New_Pattern_6);}</style><pattern id="New_Pattern_6" data-name="New Pattern 6" width="265.91" height="385.41" patternUnits="userSpaceOnUse" viewBox="0 0 265.91 385.41"><rect class="cls-1" width="265.91" height="385.41"/><path class="cls-2" d="M54.65,215.34a1.21,1.21,0,1,0-1.21-1.21A1.21,1.21,0,0,0,54.65,215.34Z"/><path class="cls-2" d="M109.3,271.6v3a4.26,4.26,0,0,1-4.26,4.26H4.26A4.26,4.26,0,0,1,0,274.57v-3a1,1,0,0,1,1-1H9.28V213.86a4.26,4.26,0,0,1,4.26-4.26H95.76a4.26,4.26,0,0,1,4.26,4.26v56.75h8.29A1,1,0,0,1,109.3,271.6Zm-98-1H98V213.86a2.27,2.27,0,0,0-2.27-2.27H13.54a2.27,2.27,0,0,0-2.27,2.27Zm33.76,2a1.56,1.56,0,0,0,1.52,1.27h16.2a1.56,1.56,0,0,0,1.52-1.27Zm62.28,0H65a2.3,2.3,0,0,1-2.29,2H46.55a2.31,2.31,0,0,1-2.29-2H2v2a2.27,2.27,0,0,0,2.27,2.27H105a2.27,2.27,0,0,0,2.27-2.27Z"/><path class="cls-2" d="M187.6,22.64a1.21,1.21,0,1,0-1.21-1.21A1.21,1.21,0,0,0,187.6,22.64Z"/><path class="cls-2" d="M242.26,78.89v3A4.27,4.27,0,0,1,238,86.12H137.22A4.27,4.27,0,0,1,133,81.86v-3a1,1,0,0,1,1-1h8.28V21.15a4.27,4.27,0,0,1,4.27-4.26h82.21A4.27,4.27,0,0,1,233,21.15V77.9h8.28A1,1,0,0,1,242.26,78.89Zm-98-1H231V21.15a2.28,2.28,0,0,0-2.28-2.27H146.5a2.28,2.28,0,0,0-2.28,2.27Zm33.77,2a1.55,1.55,0,0,0,1.51,1.26h16.21a1.55,1.55,0,0,0,1.51-1.26Zm62.28,0H198a2.33,2.33,0,0,1-2.29,2H179.5a2.33,2.33,0,0,1-2.29-2H134.94v2a2.28,2.28,0,0,0,2.28,2.28H238a2.28,2.28,0,0,0,2.28-2.28Z"/></pattern></defs><rect class="cls-3" width="1920" height="1080"/></svg>