<svg id="Layer_1" data-name="Layer 1" xmlns="http://www.w3.org/2000/svg" xmlns:xlink="http://www.w3.org/1999/xlink" viewBox="0 0 1920 1080"><defs><style>.cls-1{fill:none;}.cls-2{fill:#5d3c31;}.cls-3{stroke:#12698f;stroke-miterlimit:10;stroke-width:1.5px;fill:url(#New_Pattern_4);}</style><pattern id="New_Pattern_4" data-name="New Pattern 4" width="190.84" height="298.78" patternUnits="userSpaceOnUse" viewBox="0 0 190.84 298.78"><rect class="cls-1" width="190.84" height="298.78"/><path class="cls-2" d="M161.18,333.11v0a14.15,14.15,0,0,1-1.23,1.34l-.08.08-.59.53-.09.08a15.2,15.2,0,0,1-1.43,1.07l-.12.08-.63.38-.16.1-.72.38-.06,0q-.39.19-.81.36l-.16.06c-.21.09-.43.17-.66.25l-.23.08-.66.2-.2.06-.86.2-.14,0-.73.13-.28,0-.64.07-.27,0-.91,0H109.57a9,9,0,0,1-9-9.46,9.17,9.17,0,0,1,9.25-8.54h12.83V301.56a13.51,13.51,0,0,1,13.5-13.5H151a13.51,13.51,0,0,1,13.5,13.5V323.7a14.87,14.87,0,0,1-2.74,8.63l-.06.09C161.54,332.66,161.36,332.89,161.18,333.11Zm-51.42,3.34h39.75a12.73,12.73,0,0,0,12.75-12.75V301.56A11.26,11.26,0,0,0,151,290.31H136.16a11.26,11.26,0,0,0-11.25,11.25v19.15h14.38a1.13,1.13,0,1,1,0,2.25H124.07a1.35,1.35,0,0,1-.28,0,1.26,1.26,0,0,1-.28,0H109.57a6.75,6.75,0,0,0-6.72,7.4A6.88,6.88,0,0,0,109.76,336.45Z"/><path class="cls-2" d="M68.1,201.31l-5.27-31.57a8.25,8.25,0,0,0-8.17-6.92H37.18a1.13,1.13,0,1,0,0,2.25H49.67l-6.05,36.24a1.11,1.11,0,0,0,.92,1.29l.19,0a1.13,1.13,0,0,0,1.11-.94L52,165.07h2.71a6,6,0,0,1,6,5l5.27,31.57a1.13,1.13,0,0,0,1.11.94l.18,0A1.12,1.12,0,0,0,68.1,201.31Z"/><path class="cls-2" d="M28.37,172.48"/><path class="cls-2" d="M8.67,202.62l-.18,0a1.12,1.12,0,0,1-.93-1.29l2.33-14a1.13,1.13,0,0,1,2.22.37l-2.33,14A1.13,1.13,0,0,1,8.67,202.62Z"/><path class="cls-2" d="M13.52,173.59h-.19a1.12,1.12,0,0,1-.92-1.3l1.42-8.52a1.13,1.13,0,1,1,2.22.37l-1.42,8.52A1.13,1.13,0,0,1,13.52,173.59Z"/><path class="cls-2" d="M30.94,202.61a1.12,1.12,0,0,1-1.11-.94l-2.22-13.29a1.13,1.13,0,1,1,2.22-.37l2.22,13.29a1.13,1.13,0,0,1-.93,1.3Z"/><path class="cls-2" d="M26.09,173.57a1.13,1.13,0,0,1-1.11-.94l-.42-2.52a6,6,0,0,0-5.95-5H1.13a1.13,1.13,0,1,1,0-2.25H18.61a8.26,8.26,0,0,1,8.17,6.92l.42,2.52a1.12,1.12,0,0,1-.93,1.29Z"/><path class="cls-2" d="M65.76,183.72v0a14.15,14.15,0,0,1-1.23,1.34l-.09.08c-.19.18-.38.36-.58.53l-.09.08a15.2,15.2,0,0,1-1.43,1.07l-.13.08-.62.38-.17.1-.71.38-.06,0q-.41.19-.81.36l-.16.06-.66.25-.24.08-.65.2-.2.06-.86.2-.14,0-.73.13-.28,0-.65.07-.27,0-.9,0H14.14a9,9,0,0,1-9-9.46,9.16,9.16,0,0,1,9.24-8.54H27.24V152.17a13.51,13.51,0,0,1,13.5-13.5H55.59a13.51,13.51,0,0,1,13.5,13.5v22.14a14.94,14.94,0,0,1-2.74,8.63l-.06.09C66.12,183.27,65.94,183.5,65.76,183.72Zm-51.42,3.35H54.09a12.77,12.77,0,0,0,12.75-12.76V152.17a11.26,11.26,0,0,0-11.25-11.25H40.74a11.26,11.26,0,0,0-11.25,11.25v19.15H43.87a1.13,1.13,0,1,1,0,2.25H28.64a1,1,0,0,1-.55,0H14.14A6.75,6.75,0,0,0,7.43,181,6.88,6.88,0,0,0,14.34,187.07Z"/><path class="cls-2" d="M163.52,51.92l-5.27-31.57a8.25,8.25,0,0,0-8.17-6.92H132.6a1.13,1.13,0,1,0,0,2.25h12.49L139,51.92a1.11,1.11,0,0,0,.92,1.29l.19,0a1.13,1.13,0,0,0,1.11-.94l6.12-36.61h2.7a6,6,0,0,1,5.95,5l5.27,31.57a1.13,1.13,0,0,0,1.11.94l.19,0A1.12,1.12,0,0,0,163.52,51.92Z"/><path class="cls-2" d="M123.79,23.09"/><path class="cls-2" d="M104.09,53.23l-.18,0a1.12,1.12,0,0,1-.93-1.29l2.33-14a1.13,1.13,0,0,1,2.22.37l-2.33,14A1.13,1.13,0,0,1,104.09,53.23Z"/><path class="cls-2" d="M108.94,24.21l-.19,0a1.13,1.13,0,0,1-.92-1.3l1.42-8.52a1.13,1.13,0,1,1,2.22.37l-1.42,8.52A1.13,1.13,0,0,1,108.94,24.21Z"/><path class="cls-2" d="M126.36,53.23a1.13,1.13,0,0,1-1.11-.94L123,39a1.13,1.13,0,1,1,2.22-.37l2.22,13.29a1.13,1.13,0,0,1-.93,1.3Z"/><path class="cls-2" d="M121.51,24.18a1.13,1.13,0,0,1-1.11-.94L120,20.72a6,6,0,0,0-6-5H96.55a1.13,1.13,0,1,1,0-2.25H114a8.25,8.25,0,0,1,8.17,6.92l.42,2.52a1.12,1.12,0,0,1-.92,1.29Z"/><path class="cls-2" d="M161.18,34.34h0a14.15,14.15,0,0,1-1.23,1.34l-.08.08c-.2.19-.39.36-.59.53l-.09.08a15.2,15.2,0,0,1-1.43,1.07l-.12.08-.63.38-.16.1-.72.38-.06,0q-.39.19-.81.36l-.16.06a6.44,6.44,0,0,1-.66.25l-.23.08-.66.2-.2.06-.86.2-.14,0-.73.12-.28,0-.64.07-.27,0-.91,0H109.57a9,9,0,0,1-9-9.46,9.17,9.17,0,0,1,9.25-8.54h12.83V2.78a13.51,13.51,0,0,1,13.5-13.5H151a13.51,13.51,0,0,1,13.5,13.5V24.92a14.87,14.87,0,0,1-2.74,8.63l-.06.09C161.54,33.88,161.36,34.11,161.18,34.34Zm-51.42,3.34h39.75a12.76,12.76,0,0,0,12.75-12.76V2.78A11.26,11.26,0,0,0,151-8.47H136.16A11.26,11.26,0,0,0,124.91,2.78V21.93h14.38a1.13,1.13,0,1,1,0,2.25H124.07a1.35,1.35,0,0,1-.28,0,1.26,1.26,0,0,1-.28,0H109.57a6.75,6.75,0,0,0-6.72,7.4A6.88,6.88,0,0,0,109.76,37.68Z"/></pattern></defs><rect class="cls-3" width="1920" height="1080"/></svg>